/* XPM */
static char *_5fc50d7570049ecaf1de95cca1bb55fCpQdywIhpoLkDyaC[] = {
/* columns rows colors chars-per-pixel */
"128 128 3 1 ",
"  c None",
". c black",
"X c #97430c",
/* pixels */
"                                                                                                                                ",
"                                                                                                                                ",
"                                                                                                                                ",
"                                                                                                                                ",
"                                                                                                                                ",
"                                                                                                                                ",
"                                                                                                                                ",
"                                                                                                                                ",
"                                                                                                                                ",
"                                                                                                                                ",
"                                                                                                                                ",
"                                                                                                                                ",
"                                                                                                                                ",
"                                                                                                                                ",
"                                                                                                                                ",
"                                                                                                                                ",
"                                                                                                                                ",
"                                                                                                                                ",
"                                                                                                                                ",
"                                                                                                                                ",
"                                                                                                                                ",
"                                                                                                                                ",
"                                                                                                                                ",
"                                                                                                                                ",
"                                                                                                                                ",
"                                                                                                                                ",
"                                                                                                                                ",
"                                                                                                                                ",
"                                                                                                                                ",
"                            XXXXXXXXX                                                                                           ",
"                         XXXXXXXXXXXX                                                       XXXX                                ",
"                      XXXXXXXXXXXXXXX                                                     XXXXXX                                ",
"                    XXXXXXXXXXXXXXXXX                                                    XXXXXXX                                ",
"                  XXXXXXXXXXXX                                                          XXXXXXXX                                ",
"                XXXXXXXXXX                                                            XXXXXXXXXX                                ",
"               XXXXXXXX                                                              XXXXXXXXXXX                                ",
"              XXXXXXX                                                               XXXXXX  XXXX                                ",
"             XXXXXXX                                                               XXXXXX   XXXX                                ",
"           XXXXXXX                                                                XXXXXX    XXXX                                ",
"          XXXXXXX                                                                XXXXXX     XXXXXXXX                            ",
"          XXXXX                                                                  XXXXX      XXXXXXXXXXX                         ",
"         XXXXX                 ......  XXXXXXXX                                 XXXXX       XXXXXXXXXXXXX                       ",
"        XXXXX               .........  XXXXXXXXXXX                             XXXXX         XXXXXXXXXXXXXX                     ",
"       XXXXX             ............  XXXXXXXXXXXXXX                          XXXXX              XXXXXXXXXX                    ",
"      XXXXXX           ..............  XXXXXXXXXXXXXXXX                       XXXXX                   XXXXXXX                   ",
"      XXXXX           ...........            XXXXXXXXXXX                      XXXX                     XXXXXXX                  ",
"     XXXXX           ........                    XXXXXXXXX                   XXXXX                       XXXXX                  ",
"     XXXX           .......                        XXXXXXXX                  XXXX                         XXXXX                 ",
"    XXXXX          ......                            XXXXXXX                 XXXX                          XXXXX                ",
"    XXXX          ......                               XXXXXX               XXXXX                          XXXXX                ",
"   XXXXX         .....                                  XXXXXX              XXXX                            XXXXX               ",
"   XXXX         .....                                    XXXXX              XXXX                            XXXXX               ",
"   XXXX         .....                                     XXXXX             XXXX                             XXXX               ",
"  XXXXX        .....                                       XXXXX            XXXX                      X      XXXX               ",
"  XXXX         ....                    XXXX                XXXXX           XXXXX                    XXXXX    XXXXX              ",
"  XXXX        .....                    XXXXXXX              XXXXX          XXXXX                    XXXXX    XXXXX              ",
" XXXXX        ....                     XXXXXXXXX             XXXXX         XXXXX                    XXXXX     XXXX              ",
" XXXX        .....                     XXXXXXXXXX            XXXXX         XXXXX                    XXXXX     XXXX              ",
" XXXX        .....                       XXXXXXXXXX           XXXX          XXXX                     XXX      XXXXX             ",
" XXXX        ....                            XXXXXXX          XXXXX         XXXX                              XXXXXX            ",
" XXXX        ....                             XXXXXXX          XXXX         XXXX                               XXXXX            ",
" XXXX        ....                               XXXXXX         XXXXX        XXXX                                XXXXX           ",
" XXXX        ....                                XXXXX          XXXX        XXXX                                XXXXX           ",
" XXXX        ....                                 XXXXX         XXXXX       XXXXX                              XXXXX            ",
" XXXX        ....                                  XXXX         XXXXX        XXXX                             XXXXX             ",
" XXXX        ....                                  XXXXX         XXXX        XXXX                            XXXXXX             ",
" XXXX        ....                                   XXXX         XXXXX       XXXXX                          XXXXXX              ",
" XXXX        ....                                   XXXXX         XXXX        XXXX                         XXXXXX               ",
" XXXX        ....                                    XXXX         XXXXX       XXXXX                      XXXXXXX                ",
" XXXX        .....                                   XXXX          XXXX       XXXXX            XXXXXXXXXXXXXXXX                 ",
" XXXXX        ....                                   XXXXX         XXXXX       XXXXX           XXXXXXXXXXXXXXX                  ",
"  XXXX        ....                                   XXXXX         XXXXX       XXXXX          XXXXXXXXXXXXXX                    ",
"  XXXX        .....                                   XXXX          XXXXX       XXXXX          XXXXXXXXXXX                      ",
"  XXXX         ....                                   XXXX          XXXXX        XXXXX                                          ",
"  XXXXX        .....                                  XXXX           XXXXX       XXXXXX                                         ",
"   XXXX         .....                                 XXXX           XXXXX        XXXXXX                                        ",
"   XXXXX        ......                                XXXX            XXXXX        XXXXXX                                       ",
"   XXXXX         ......                              XXXXX             XXXX         XXXXXX                                      ",
"    XXXXX         ......                             XXXX              XXXXX         XXXXXX                                     ",
"    XXXXX          ......                            XXXX               XXXXX         XXXXXXX                                   ",
"     XXXXX          .......                          XXXX               XXXXXX         XXXXXXXX                                 ",
"     XXXXX           .........                      XXXXX                XXXXXX         XXXXXXXXX                               ",
"      XXXXX           ...............               XXXX                  XXXXXX          XXXXXXXXXX                            ",
"       XXXXX            .............              XXXXX                   XXXXXX          XXXXXXXXXXXXX                        ",
"       XXXXXX             ...........             XXXXXXXXXXXXXXX           XXXXXX           XXXXXXXXXXXXXXXXXXXXXXXXXX         ",
"        XXXXXX               ........             XXXXXXXXXXXXXXXXXX         XXXXXX             XXXXXXXXXXXXXXXXXXXXXXXXX       ",
"         XXXXXX                                  XXXXXXXXXXXXXXXXXXXXX        XXXXXX               XXXXXXXXXXXXXXXXXXXXXXXX     ",
"          XXXXXX                                 XXXXXXXXXXXXXXXXXXXXXX        XXXXXXX                 XXXXXXXXXXXXXXXXXXXXX    ",
"           XXXXXX                                  XXXXXXXXXXXXXXXXXXXXX        XXXXXXXX                              XXXXXXX   ",
"            XXXXXXX                                                XXXXX         XXXXXXXXX                              XXXXX   ",
"             XXXXXXX                                                XXXXX          XXXXXXXXX                             XXXXX  ",
"              XXXXXXXX                                              XXXXX            XXXXXXXXXX                           XXXX  ",
"                XXXXXXXX                                             XXXX              XXXXXXXXXXXX                       XXXXX ",
"                 XXXXXXXXXX                                          XXXX                XXXXXXXXXXXXXXX                   XXXX ",
"                   XXXXXXXXXXXXX                                     XXXX                  XXXXXXXXXXXXXXXXXXXXXX          XXXX ",
"                     XXXXXXXXXXXXXXXX  XXXXXXXXXXXXXXXXXXXXXXXXXXXXXXXXXX                     XXXXXXXXXXXXXXXXXXXXXXXXXXXXXXXXX ",
"                       XXXXXXXXXXXXXX  XXXXXXXXXXXXXXXXXXXXXXXXXXXXXXXXXX                         XXXXXXXXXXXXXXXXXXXXXXXXXXXXX ",
"                          XXXXXXXXXXX  XXXXXXXXXXXXXXXXXXXXXXXXXXXXXXXXXX                              XXXXXXXXXXXXXXXXXXXXXXXX ",
"                               XXXXXX  XXXXXXXXXXXXXXXXXXXXXXXXXXXXXXXXX                                       XXXXXXXXXXXXXXXX ",
"                                                                                                                                ",
"                                                                                                                                ",
"                                                                                                                                ",
"                                                                                                                                ",
"                                                                                                                                ",
"                                                                                                                                ",
"                                                                                                                                ",
"                                                                                                                                ",
"                                                                                                                                ",
"                                                                                                                                ",
"                                                                                                                                ",
"                                                                                                                                ",
"                                                                                                                                ",
"                                                                                                                                ",
"                                                                                                                                ",
"                                                                                                                                ",
"                                                                                                                                ",
"                                                                                                                                ",
"                                                                                                                                ",
"                                                                                                                                ",
"                                                                                                                                ",
"                                                                                                                                ",
"                                                                                                                                ",
"                                                                                                                                ",
"                                                                                                                                ",
"                                                                                                                                ",
"                                                                                                                                ",
"                                                                                                                                ",
"                                                                                                                                "
};
