/* XPM */
static char *ed98f2e3303b415eab8af2fa681fc054XEFU0KgoJLcP8yUy[] = {
/* columns rows colors chars-per-pixel */
"64 64 3 1 ",
"  c None",
". c black",
"X c #97430c",
/* pixels */
"                                                                ",
"                                                                ",
"                                                                ",
"                                                                ",
"                                                                ",
"                                                                ",
"                                                                ",
"                                                                ",
"                                                                ",
"                                                                ",
"                                                                ",
"                                                                ",
"                                                                ",
"                                                                ",
"                XX                                              ",
"            XXXXXXX                           XX                ",
"         XXXXXXXX                           XXXX                ",
"        XXXX                               XXXXX                ",
"       XXX                                XXX XX                ",
"     XXXX                                XXX  XXX               ",
"     XX                                 XXX   XXXXXX            ",
"    XX       ...... XXXXXX              XX     XXXXXXX          ",
"   XXX     .......  XXXXXXXX           XX          XXXX         ",
"  XXX     ....           XXXX          XX            XX         ",
"  XX     ...               XXX        XX              XX        ",
"  XX    ...                 XXX       XX              XX        ",
" XX     ..                   XXX      XX              XXX       ",
" XX    ..           XX        XX      XX          XX   XX       ",
" XX    ..           XXXX       XX     XX          XXX  XX       ",
"XXX    ..             XXXX     XX     XX               XXX      ",
"XX    ..                XXX    XXX    XX                XX      ",
"XX    ..                 XX     XX    XX                XX      ",
"XX    ..                 XXX    XXX   XXX              XXX      ",
"XXX   ...                 XX     XX    XX             XXX       ",
"XXX    ..                 XXX    XX    XX       X  XXXXX        ",
" XX    ..                  XX     XX    XX     XXXXXXXX         ",
" XX    ...                 XX     XX    XXX     XXXX            ",
" XX     ..                 XX      XX    XXX                    ",
"  XX    ...                XX      XXX    XXX                   ",
"  XX     ...               XX       XX     XXX                  ",
"   XX     ....            XX        XXX     XXXX                ",
"   XXX      .......       XX         XXX     XXXXXX             ",
"    XXX       .....      XXXXXXXX     XXX      XXXXXXXXXXXXX    ",
"     XXX                 XXXXXXXXXX    XXXX       XXXXXXXXXXXX  ",
"      XXX                        XXX    XXXX               XXX  ",
"       XXXX                       XX      XXXXX              XX ",
"        XXXXX                     XXX       XXXXXXX          XX ",
"          XXXXXXXX  XXXXXXXXXXXXXXXXX         XXXXXXXXXXXXXXXXXX",
"            XXXXXXX XXXXXXXXXXXXXXXX              XXXXXXXXXXXXXX",
"                                                            XXX ",
"                                                                ",
"                                                                ",
"                                                                ",
"                                                                ",
"                                                                ",
"                                                                ",
"                                                                ",
"                                                                ",
"                                                                ",
"                                                                ",
"                                                                ",
"                                                                ",
"                                                                ",
"                                                                "
};
