/* XPM */
static char *_2eb21b0c5d64a28ee732c340046798asT4xcOw6Lgv10Bi3[] = {
/* columns rows colors chars-per-pixel */
"32 32 4 1 ",
"  c None",
". c black",
"X c #97430c",
"o c #7F390A",
/* pixels */
"                                ",
"                                ",
"                                ",
"                                ",
"                                ",
"                                ",
"                                ",
"       XX                       ",
"    XXX               XX        ",
"   XX                X X        ",
"  XX   .. oX        X  XXX      ",
" XX  ...    XX     XX     XX    ",
" X  ..        X    X       X    ",
"XX  .          X   X       X    ",
"X  .      XX   XX  X     X XX   ",
"X  .        X   X  X        X   ",
"X  .         X  X  X       XX   ",
"X  .         X   X  X   XXXX    ",
"XX  .        X   X  XX          ",
" X  ..       X    X  XX         ",
" XX  ...     X    XX  XXX       ",
"  XX    .   XXXXX  XX   XXXXXX  ",
"   XX            X   XX       X ",
"    XXX          X    XXXXX   XX",
"       XX XXXXXXXX        XXXXXX",
"                                ",
"                                ",
"                                ",
"                                ",
"                                ",
"                                ",
"                                "
};
